<svg width="899" height="1136" viewBox="0 0 899 1136" fill="none" xmlns="http://www.w3.org/2000/svg">
<path d="M902.846 895.849C902.828 895.866 902.793 895.866 902.758 895.884C902.793 895.866 902.811 895.866 902.828 895.849H902.846ZM811.772 928.811C845.748 908.904 876.228 904.133 902.758 895.884C871.596 907.611 841.239 918.604 811.772 928.811ZM761.071 969.375C738.473 992.69 724.036 1017.14 714.756 1039.91C694.046 1044.91 665.173 1048.84 645.127 1048.84C560.327 1048.84 506.707 1008.94 506.707 1008.94C591.21 997.531 694.413 969.463 811.772 928.811C795.641 938.266 778.723 951.112 761.071 969.375Z" fill="url(#paint0_linear)"/>
<path d="M902.846 895.847C765.422 948.698 629.764 992.619 506.707 1008.94C506.707 1008.94 526.404 961.684 579.185 922.151C609.456 931.134 639.744 934.629 668.529 934.629C768.673 934.629 850.956 892.352 852.861 891.373C865.392 894.432 884.495 896.704 902.846 895.847Z" fill="url(#paint1_linear)"/>
<path d="M852.872 891.373C820.801 883.508 786.843 869.544 739.549 869.544C718.524 869.544 694.878 872.305 667.596 879.593C631.103 889.328 602.091 905.023 579.196 922.15C435.533 876.43 390.39 766.656 390.39 766.656C532.27 784.343 688.254 829.434 852.872 891.373Z" fill="url(#paint2_linear)"/>
<path d="M805.759 856.925C819.933 870.959 834.562 883.053 853 891.302L852.878 891.372C686.355 828.821 530.214 783.922 390.396 766.655C390.396 766.655 438.249 731.281 514.537 723.521C624.591 843.817 799.747 856.523 805.759 856.925Z" fill="url(#paint3_linear)"/>
<path d="M569.073 486.863C606.858 673.433 775.059 791.229 779.533 794.34C785.266 816.833 792.326 837.648 805.766 856.926C665.599 687.414 532.388 547.632 419.468 455.492C419.468 455.492 421.408 455.387 424.991 455.387C443.01 455.387 502.886 457.799 569.073 486.863Z" fill="url(#paint4_linear)"/>
<path d="M805.766 856.926H805.749C766.408 817.882 730.789 763.65 628.18 734.096C598.015 725.427 551.403 719.537 514.526 723.522C411.446 615.793 440.895 517.326 419.468 455.492C557.817 569.006 684.649 706.22 805.766 856.926Z" fill="url(#paint5_linear)"/>
<path d="M779.524 794.339C763.637 731.841 760.561 656.409 675.989 565.475C641.209 528.092 604.979 503.973 569.063 486.863C564.345 308.613 620.027 280.142 634.778 162.766C697.067 362.478 744.325 572.868 779.524 794.339Z" fill="url(#paint6_linear)"/>
<path d="M765.105 283.638C690.862 492.858 788.752 711.742 790.814 716.304C783.055 742.1 777.707 767.11 779.542 794.339C746.65 582.743 697.521 372.282 634.796 162.766C634.796 162.766 707.396 197.475 765.105 283.638Z" fill="url(#paint7_linear)"/>
<path d="M790.83 716.199C812.432 644.385 854.448 567.345 824.614 426.059C812.345 367.965 790.463 321.948 765.104 283.638C852.997 100.075 965.62 108.359 1024.66 0.000183105C979.794 238.983 899.154 477.53 790.83 716.199ZM790.813 716.303V716.269C790.813 716.251 790.83 716.216 790.83 716.199C790.83 716.234 790.813 716.269 790.813 716.303Z" fill="url(#paint8_linear)"/>
<path d="M714.752 1039.91C724.033 1017.14 738.469 992.689 761.067 969.374C815.98 912.626 863.693 908.047 902.825 895.848C902.895 895.83 902.947 895.848 903 895.83C903 895.83 833.51 1009.24 714.752 1039.91Z" fill="url(#paint9_linear)"/>
<path d="M852.872 891.372C850.425 892.631 714.697 962.365 579.213 922.15C602.091 905.022 631.103 889.328 667.596 879.593C694.878 872.305 718.542 869.543 739.549 869.543C786.86 869.543 820.818 883.508 852.872 891.372Z" fill="url(#paint10_linear)"/>
<path d="M628.18 734.096C730.789 763.65 766.408 817.882 805.766 856.926C799.737 856.506 624.58 843.835 514.526 723.522C523.684 722.613 533.384 722.107 543.556 722.107C569.265 722.107 597.962 725.392 628.18 734.096Z" fill="url(#paint11_linear)"/>
<path d="M675.989 565.475C760.561 656.409 763.655 731.841 779.524 794.339C775.609 791.718 606.849 673.432 569.063 486.863C604.018 503.326 641.209 528.092 675.989 565.475Z" fill="url(#paint12_linear)"/>
<path d="M824.602 426.077C854.453 567.398 812.386 644.437 790.801 716.286C788.739 711.742 690.849 492.857 765.092 283.638C790.085 321.004 812.333 367.965 824.602 426.077Z" fill="url(#paint13_linear)"/>
<path d="M1056.19 376.127C1001.35 534.855 913.281 586.465 848.755 645.119C848.685 645.188 848.598 645.223 848.528 645.276C848.528 645.276 880.791 364.312 1082.15 198.541C1084.7 250.745 1078.74 310.867 1056.19 376.127Z" fill="url(#paint14_linear)"/>
<path d="M1082.16 198.524C880.803 364.295 848.54 645.276 848.54 645.276L848.767 645.119C825.575 666.231 805.284 688.025 790.812 716.286C894.47 486.985 971.02 247.722 1024.66 6.10352e-05C1053.63 45.7205 1078.77 127.024 1082.16 198.524Z" fill="url(#paint15_linear)"/>
<path d="M699.77 1136C699.77 1136 693.338 1092.45 714.765 1039.91C833.523 1009.24 903.012 895.828 903.012 895.828L902.855 895.845C916.959 891.441 929.962 886.093 941.759 876.917C868.442 976.677 787.033 1070.06 699.77 1136Z" fill="url(#paint16_linear)"/>
<path d="M714.753 1039.91C724.033 1017.14 738.469 992.688 761.067 969.373C815.981 912.625 863.694 908.046 902.825 895.847C902.895 895.829 902.947 895.847 903 895.829C903 895.829 833.51 1009.24 714.753 1039.91Z" fill="url(#paint17_linear)"/>
<path d="M699.815 1136C774.985 1077.12 857.582 995.797 936.666 890.078C898.531 994.224 906.675 1107.77 699.815 1136Z" fill="url(#paint18_linear)"/>
<path d="M936.656 890.079C882.162 962.941 827.878 1021.6 775.464 1071.21C833.366 1015.86 876.849 959.621 934.995 881.672C937.407 880.082 938.438 879.365 941.759 876.919C939.942 881.288 938.246 885.675 936.656 890.079ZM758.93 1086.63C764.418 1081.59 769.941 1076.46 775.464 1071.21C770.081 1076.35 764.593 1081.49 758.93 1086.63Z" fill="url(#paint19_linear)"/>
<g opacity="0.7">
<g opacity="0.75">
<g opacity="0.75">
<g opacity="0.75">
<g opacity="0.75">
<g opacity="0.75">
<path opacity="0.75" d="M1.64273 369.886C68.2134 436.562 157.277 502.136 273.413 569.948C278.919 571.084 287.378 574.09 287.378 574.09C287.378 574.09 282.694 568.392 279.985 565.316C164.443 498.029 75.7461 433.031 9.43753 367.02C5.3129 365.167 -3.05176e-05 363.122 -3.05176e-05 363.122C-3.05176e-05 363.122 0.908691 366.758 1.64273 369.886Z" fill="url(#paint20_linear)"/>
</g>
</g>
</g>
</g>
</g>
</g>
<g opacity="0.7">
<path d="M97.3472 452.343C154.131 496.473 216.682 533.49 287.045 574.02C189.015 543.557 86.1618 565.77 29.3958 451.959C18.2104 429.553 8.87756 402.149 1.85172 368.19C30.3046 397.133 62.3229 425.149 97.3472 452.343Z" fill="url(#paint21_linear)"/>
</g>
<g opacity="0.7">
<path d="M170.514 412.968C241.734 451.033 250.018 503.098 265.241 538.786V538.804C270.711 551.632 277.143 563.429 287.507 573.898C250.42 552.628 214.103 530.45 179.306 507.415C178.274 472.67 173.591 438.432 159.434 407.55C163.052 409.175 166.722 410.958 170.514 412.968ZM265.241 538.874C265.241 538.891 265.241 538.909 265.258 538.926L265.241 538.874Z" fill="url(#paint22_linear)"/>
</g>
<g opacity="0.7">
<path d="M159.445 407.549C173.601 438.431 178.285 472.669 179.316 507.414C111.452 462.463 49.5307 414.261 0.140121 363C76.2533 396.783 111.557 386.105 159.445 407.549Z" fill="url(#paint23_linear)"/>
</g>
<defs>
<linearGradient id="paint0_linear" x1="877" y1="972.351" x2="507.985" y2="972.351" gradientUnits="userSpaceOnUse">
<stop stop-color="#00C4A5"/>
<stop offset="0.199095" stop-color="#00C4A5"/>
<stop offset="0.821742" stop-color="#36F9BA"/>
<stop offset="0.864997" stop-color="#36F9BA"/>
<stop offset="1" stop-color="#36F9BA"/>
</linearGradient>
<linearGradient id="paint1_linear" x1="506.558" y1="985.577" x2="799.769" y2="894.249" gradientUnits="userSpaceOnUse">
<stop stop-color="#27F9B5"/>
<stop offset="0.0649574" stop-color="#27F9B5"/>
<stop offset="1" stop-color="#00B5AA"/>
</linearGradient>
<linearGradient id="paint2_linear" x1="383.341" y1="812.341" x2="723.989" y2="900.084" gradientUnits="userSpaceOnUse">
<stop stop-color="#16F6E3"/>
<stop offset="0.216166" stop-color="#16F6E3"/>
<stop offset="0.245692" stop-color="#16F6E3"/>
<stop offset="0.974" stop-color="#028FBD"/>
<stop offset="1" stop-color="#028FBD"/>
</linearGradient>
<linearGradient id="paint3_linear" x1="463.408" y1="749.198" x2="848.807" y2="893.722" gradientUnits="userSpaceOnUse">
<stop stop-color="#2EF4E5"/>
<stop offset="0.0389605" stop-color="#2EF4E5"/>
<stop offset="1" stop-color="#0495B6"/>
</linearGradient>
<linearGradient id="paint4_linear" x1="525.367" y1="509.495" x2="803.339" y2="851.965" gradientUnits="userSpaceOnUse">
<stop stop-color="#01EEFF"/>
<stop offset="0.178819" stop-color="#01EEFF"/>
<stop offset="0.189069" stop-color="#01EEFF"/>
<stop offset="1" stop-color="#0773D8"/>
</linearGradient>
<linearGradient id="paint5_linear" x1="468.818" y1="555.395" x2="746.79" y2="897.866" gradientUnits="userSpaceOnUse">
<stop stop-color="#05E9F5"/>
<stop offset="0.00090939" stop-color="#05E9F5"/>
<stop offset="0.143672" stop-color="#05E9F5"/>
<stop offset="0.850942" stop-color="#0674E5"/>
<stop offset="1" stop-color="#0674E5"/>
</linearGradient>
<linearGradient id="paint6_linear" x1="627.528" y1="334.493" x2="698.39" y2="798.32" gradientUnits="userSpaceOnUse">
<stop stop-color="#11B1FF"/>
<stop offset="0.150546" stop-color="#11B1FF"/>
<stop offset="0.161174" stop-color="#11B1FF"/>
<stop offset="0.891617" stop-color="#0778E8"/>
<stop offset="1" stop-color="#0778E8"/>
</linearGradient>
<linearGradient id="paint7_linear" x1="714.914" y1="321.145" x2="785.777" y2="784.973" gradientUnits="userSpaceOnUse">
<stop stop-color="#26CDFF"/>
<stop offset="0.848313" stop-color="#1056E7"/>
<stop offset="0.860656" stop-color="#1056E7"/>
<stop offset="1" stop-color="#1056E7"/>
</linearGradient>
<linearGradient id="paint8_linear" x1="953.915" y1="-7.86647" x2="756.444" y2="607.331" gradientUnits="userSpaceOnUse">
<stop stop-color="#2794FF"/>
<stop offset="0.0917245" stop-color="#2794FF"/>
<stop offset="0.892275" stop-color="#1030E6"/>
<stop offset="0.906725" stop-color="#1030E6"/>
<stop offset="1" stop-color="#1030E6"/>
</linearGradient>
<linearGradient id="paint9_linear" x1="718.998" y1="1039.86" x2="907.269" y2="875.418" gradientUnits="userSpaceOnUse">
<stop stop-color="#82FAA1"/>
<stop offset="1" stop-color="#74E1F9"/>
</linearGradient>
<linearGradient id="paint10_linear" x1="835.012" y1="902.089" x2="580.087" y2="902.089" gradientUnits="userSpaceOnUse">
<stop stop-color="#029AC5"/>
<stop offset="0.935043" stop-color="#00C3C4"/>
<stop offset="1" stop-color="#00C3C4"/>
</linearGradient>
<linearGradient id="paint11_linear" x1="790.162" y1="838.093" x2="531.579" y2="728.575" gradientUnits="userSpaceOnUse">
<stop stop-color="#0673BF"/>
<stop offset="0.125165" stop-color="#0673BF"/>
<stop offset="0.98908" stop-color="#05E9F5"/>
<stop offset="1" stop-color="#05E9F5"/>
</linearGradient>
<linearGradient id="paint12_linear" x1="771.045" y1="764.124" x2="594.6" y2="514.668" gradientUnits="userSpaceOnUse">
<stop stop-color="#0273D8"/>
<stop offset="0.120453" stop-color="#0273D8"/>
<stop offset="0.131861" stop-color="#0273D8"/>
<stop offset="0.915943" stop-color="#07DDFF"/>
<stop offset="1" stop-color="#07DDFF"/>
</linearGradient>
<linearGradient id="paint13_linear" x1="780.108" y1="303.319" x2="791.501" y2="652.69" gradientUnits="userSpaceOnUse">
<stop stop-color="#0B92FD"/>
<stop offset="0.0157816" stop-color="#0B92FD"/>
<stop offset="0.890108" stop-color="#1157F6"/>
<stop offset="1" stop-color="#1157F6"/>
</linearGradient>
<linearGradient id="paint14_linear" x1="1085.21" y1="216.597" x2="865.41" y2="633.293" gradientUnits="userSpaceOnUse">
<stop stop-color="#2670FE"/>
<stop offset="0.01773" stop-color="#2670FE"/>
<stop offset="1" stop-color="#2732F4"/>
</linearGradient>
<linearGradient id="paint15_linear" x1="1061.42" y1="54.4078" x2="943.693" y2="434.159" gradientUnits="userSpaceOnUse">
<stop stop-color="#4FC5FF"/>
<stop offset="0.10582" stop-color="#4FC5FF"/>
<stop offset="0.112194" stop-color="#4FC5FF"/>
<stop offset="1" stop-color="#2630F5"/>
</linearGradient>
<linearGradient id="paint16_linear" x1="679.815" y1="1113.13" x2="945.583" y2="881.293" gradientUnits="userSpaceOnUse">
<stop stop-color="#8CFB73"/>
<stop offset="0.0904874" stop-color="#8CFB73"/>
<stop offset="1" stop-color="#73F385"/>
</linearGradient>
<linearGradient id="paint17_linear" x1="890.704" y1="967.87" x2="715.361" y2="967.87" gradientUnits="userSpaceOnUse">
<stop stop-color="#00D784"/>
<stop offset="0.935043" stop-color="#00F18F"/>
<stop offset="1" stop-color="#00F18F"/>
</linearGradient>
<linearGradient id="paint18_linear" x1="936.654" y1="1013.05" x2="699.825" y2="1013.05" gradientUnits="userSpaceOnUse">
<stop stop-color="#BCFB81"/>
<stop offset="0.0904874" stop-color="#BCFB81"/>
<stop offset="1" stop-color="#2EEE2D"/>
</linearGradient>
<linearGradient id="paint19_linear" x1="945.719" y1="881.751" x2="757.431" y2="1082.69" gradientUnits="userSpaceOnUse">
<stop stop-color="#77FB8D"/>
<stop offset="0.0580924" stop-color="#77FB8D"/>
<stop offset="0.649395" stop-color="#C1FDC1"/>
<stop offset="0.895431" stop-color="#72FA8D"/>
<stop offset="0.901269" stop-color="#72FA8D"/>
<stop offset="1" stop-color="#72FA8D"/>
</linearGradient>
<linearGradient id="paint20_linear" x1="281.902" y1="578.151" x2="0.594728" y2="370.872" gradientUnits="userSpaceOnUse">
<stop stop-color="#63EDFB"/>
<stop offset="0.59714" stop-color="#94FFD6"/>
<stop offset="1" stop-color="#94FFD6"/>
</linearGradient>
<linearGradient id="paint21_linear" x1="283.171" y1="471.106" x2="-18.2127" y2="471.106" gradientUnits="userSpaceOnUse">
<stop stop-color="#25FCBE"/>
<stop offset="0.853142" stop-color="#18FFC4"/>
<stop offset="0.878207" stop-color="#18FFC4"/>
<stop offset="1" stop-color="#18FFC4"/>
</linearGradient>
<linearGradient id="paint22_linear" x1="285.766" y1="490.729" x2="150.415" y2="490.729" gradientUnits="userSpaceOnUse">
<stop stop-color="#18DEDD"/>
<stop offset="0.0285414" stop-color="#18DEDD"/>
<stop offset="1" stop-color="#21EBBB"/>
</linearGradient>
<linearGradient id="paint23_linear" x1="176.887" y1="435.217" x2="-12.4728" y2="435.217" gradientUnits="userSpaceOnUse">
<stop stop-color="#15E5B4"/>
<stop offset="0.0285414" stop-color="#15E5B4"/>
<stop offset="1" stop-color="#4CF9C8"/>
</linearGradient>
</defs>
</svg>
